<svg version="1.0" xmlns="http://www.w3.org/2000/svg"
    width="32" height="32" viewBox="0 0 64 64"
    preserveAspectRatio="xMidYMid meet" fill="magenta">

    <g transform="translate(0.000000,64.000000) scale(0.100000,-0.100000)"
        fill="#fff" stroke="none">
        <path
            d="M370 529 c-13 -6 -25 -11 -27 -13 -2 -1 38 -44 87 -96 50 -51 90 -99
90 -106 0 -13 -112 -116 -119 -109 -2 3 13 23 33 45 59 66 53 88 -53 192 -83
82 -92 88 -130 88 -35 0 -49 -8 -116 -66 -137 -119 -139 -160 -12 -281 84 -81
124 -98 163 -69 18 14 14 20 -76 110 l-94 96 59 60 c33 33 62 55 64 49 2 -6
-13 -27 -33 -48 -56 -57 -51 -73 58 -179 89 -87 96 -92 137 -92 40 0 47 5 126
83 78 79 83 86 83 126 0 40 -5 49 -72 118 -59 61 -121 107 -140 102 -2 0 -14
-5 -28 -10z m-15 -179 l29 -30 -32 -33 -32 -32 -32 32 -32 33 29 30 c16 16 32
30 35 30 3 0 19 -14 35 -30z" />
    </g>
</svg>